<svg xmlns="http://www.w3.org/2000/svg" viewBox="0 0 1800 1800" width="1800" height="1800"><g transform="translate(546.0 608.0) rotate(0.0 386.5 343.5) scale(0.9855922478643376 0.9849603578545929)"><svg width="784.3" height="697.49" viewBox="0 0 784.3 697.49"><path d="M783.3 51v595.49c0 27.62-22.38 50-50 50H51c-27.61 0-50-22.38-50-50V51C1 23.39 23.39 1 51 1h682.3c27.62 0 50 22.39 50 50z" fill="#fff"/><path d="M733.3 697.49H51c-28.122 0-51-22.879-51-51V51C0 22.879 22.878 0 51 0h682.3c28.122 0 51 22.879 51 51v595.49c0 28.122-22.878 51-51 51zM51 2C23.981 2 2 23.982 2 51v595.49c0 27.019 21.981 49 49 49h682.3c27.019 0 49-21.981 49-49V51c0-27.019-21.981-49-49-49z" fill="#112c41"/><path d="M783.3 51v40.81H1V51C1 23.39 23.39 1 51 1h682.3c27.62 0 50 22.39 50 50z" fill="#cbc8ff"/><path d="M783.3 92.81H1a1 1 0 0 1-1-1V51C0 22.879 22.878 0 51 0h682.3c28.122 0 51 22.879 51 51v40.81a1 1 0 0 1-1 1zM2 90.81h780.3V51c0-27.019-21.981-49-49-49H51C23.981 2 2 23.982 2 51z" fill="#112c41"/><circle cx="54.238" cy="48.366" fill="#ffa9dc" r="12.766"/><path d="M54.238 62.132c-7.591 0-13.766-6.175-13.766-13.766S46.647 34.6 54.238 34.6c7.59 0 13.766 6.175 13.766 13.766s-6.175 13.766-13.766 13.766zm0-25.531c-6.488 0-11.766 5.278-11.766 11.766s5.278 11.766 11.766 11.766 11.766-5.278 11.766-11.766-5.278-11.766-11.766-11.766z" fill="#112c41"/><circle cx="105.132" cy="48.366" fill="#ffe993" r="12.766"/><path d="M105.132 62.132c-7.591 0-13.766-6.175-13.766-13.766S97.541 34.6 105.132 34.6c7.59 0 13.766 6.175 13.766 13.766s-6.176 13.766-13.766 13.766zm0-25.531c-6.488 0-11.766 5.278-11.766 11.766s5.278 11.766 11.766 11.766 11.766-5.278 11.766-11.766-5.278-11.766-11.766-11.766z" fill="#112c41"/><circle cx="156.025" cy="48.366" fill="#7bdaac" r="12.766"/><path d="M156.025 62.132c-7.591 0-13.766-6.175-13.766-13.766S148.434 34.6 156.025 34.6s13.766 6.175 13.766 13.766-6.175 13.766-13.766 13.766zm0-25.531c-6.488 0-11.766 5.278-11.766 11.766s5.278 11.766 11.766 11.766 11.766-5.278 11.766-11.766-5.278-11.766-11.766-11.766z" fill="#112c41"/></svg></g><g transform="translate(397.0 630.0) rotate(0.0 431.5 347.5) scale(1.000548388630153 1.0007516436805775)"><svg width="862.527" height="694.478" viewBox="0 0 862.527 694.478"><path d="M325.662 485.419c-36.98 12.42-82.01 25.58-107.11 30.6-60 12-191-2-215-147-6.18-37.32-.52-81.62 10.36-124.08 19.11-74.66 54.34-143.62 69.64-158.92 18.82-17.88 83.33-36.56 85.37-25.45 1.65-9.82 9.2-46.34 31.63-57.55 18.8-9.4 33 24 11 87 16 43-15 87-32 159-12.72 53.88-2 87-2 87s24 0 74-34c57.58-39.16 132 151 134 158 .95 3.34-26.11 14.06-59.89 25.4z" fill="#ffd6c0"/><path d="M182.309 520.389c-34.218 0-75.174-8.25-109.542-32-37.815-26.132-61.434-66.239-70.202-119.207-5.606-33.854-2.114-75.739 10.378-124.491 18.791-73.412 53.951-143.429 69.902-159.379 17.089-16.236 70.074-32.721 83.48-28.356.869.283 1.534.638 2.043 1.026 2.449-12.99 10.546-45.267 31.737-55.857 5.287-2.643 10.448-2.12 14.532 1.474 10.693 9.408 14.196 39.768-2.023 86.411 10.528 28.735.363 58.012-12.492 95.041-6.505 18.74-13.879 39.979-19.598 64.199-11.492 48.677-3.65 80.657-2.23 85.75 8.979-.429 34.559-7.875 72.694-33.807 8.708-5.921 18.307-7.045 28.537-3.338 14.885 5.393 39.513 24.662 72.313 85.827 19.718 36.77 33.68 72.584 34.674 76.063.405 1.424 1.636 5.753-60.533 26.623-39.812 13.371-83.908 25.968-107.232 30.632-10.56 2.111-22.98 3.389-36.438 3.389zM160.428 58.214c-18.115 0-61.608 14.679-76.187 28.53-15.774 15.774-50.653 85.355-69.36 158.443-12.423 48.482-15.902 90.09-10.342 123.668 8.675 52.414 32.013 92.077 69.365 117.888 47.37 32.735 107.422 35.702 144.452 28.295 23.251-4.65 67.246-17.22 106.988-30.567 45.245-15.188 58.478-22.367 59.22-24.27-1.188-3.943-15.003-39.242-34.487-75.576-32.501-60.608-56.675-79.617-71.232-84.892-9.59-3.476-18.584-2.428-26.73 3.112-49.684 33.785-73.57 34.173-74.562 34.173a.998.998 0 0 1-.951-.692c-.108-.334-10.66-34.005 1.978-87.538 5.742-24.318 13.133-45.61 19.655-64.395 12.773-36.795 22.863-65.857 12.381-94.027a.994.994 0 0 1-.007-.678c15.962-45.711 12.593-75.892 2.708-84.59-3.481-3.063-7.741-3.475-12.317-1.186-9.337 4.667-17.12 14.352-23.132 28.786-4.915 11.801-7.204 23.537-7.959 28.035a1 1 0 0 1-.979.834h-.008a1 1 0 0 1-.983-.819c-.057-.307-.228-1.239-2.233-1.892-1.343-.436-3.134-.642-5.278-.642z" fill="#112c41"/><path d="M143.552 70.019c-8 14 19 32 24 46-19 14-28.072 29.005-33.264 46.441" fill="#ffd6c0"/><path d="M340.552 458.018c-4.03 9.83-9.06 18.96-14.89 27.4-36.98 12.42-82.01 25.58-107.11 30.6-60 12-191-2-215-147-6.18-37.32-.52-81.62 10.36-124.08-19.36 146.08 25.64 325.08 326.64 213.08z" fill="#f5b9ab"/><path d="M182.756 519.937c-34.218 0-75.174-8.25-109.542-32C35.399 461.805 11.78 421.698 3.013 368.73c-5.606-33.854-2.114-75.739 10.378-124.491 18.79-73.412 53.951-143.429 69.902-159.38 17.089-16.236 70.076-32.722 83.48-28.356.869.283 1.534.638 2.043 1.026 2.449-12.99 10.546-45.267 31.737-55.857C205.84-.971 211-.447 215.085 3.146c10.693 9.408 14.196 39.768-2.023 86.411 10.528 28.735.363 58.012-12.492 95.041-6.505 18.74-13.879 39.979-19.598 64.199-11.492 48.677-3.65 80.657-2.23 85.75 8.979-.429 34.559-7.875 72.694-33.807 8.708-5.921 18.307-7.046 28.537-3.338 14.885 5.393 39.513 24.662 72.313 85.827 19.718 36.77 33.68 72.584 34.674 76.063.405 1.424 1.636 5.753-60.533 26.623-39.812 13.371-83.908 25.968-107.232 30.632-10.561 2.112-22.981 3.39-36.439 3.39zm-21.88-462.175c-18.115 0-61.608 14.679-76.187 28.53-15.774 15.774-50.653 85.355-69.36 158.443C2.905 293.217-.574 334.825 4.986 368.403c8.675 52.414 32.013 92.077 69.365 117.888 47.37 32.735 107.422 35.701 144.452 28.295 23.251-4.65 67.246-17.22 106.988-30.567 45.245-15.188 58.478-22.367 59.22-24.27-1.188-3.943-15.003-39.242-34.487-75.576-32.501-60.608-56.675-79.617-71.232-84.892-9.591-3.476-18.584-2.428-26.73 3.112-49.684 33.785-73.57 34.173-74.562 34.173a.998.998 0 0 1-.951-.692c-.108-.334-10.66-34.005 1.978-87.538 5.742-24.318 13.133-45.61 19.655-64.395 12.773-36.795 22.863-65.857 12.381-94.027a.994.994 0 0 1-.007-.678c15.962-45.711 12.593-75.892 2.708-84.59-3.482-3.063-7.74-3.475-12.317-1.186-9.337 4.667-17.12 14.352-23.132 28.786-4.915 11.801-7.204 23.537-7.959 28.035a1 1 0 0 1-.979.834h-.008a1 1 0 0 1-.983-.819c-.057-.307-.228-1.239-2.233-1.892-1.342-.436-3.133-.642-5.277-.642z" fill="#112c41"/><path d="M854.892 387.458c-34.13 34.52-149.15 74.67-198.13 69.8-.59-.05-1.17-.12-1.74-.19l-.075.04c-14.626 30.647-151.187 138-320.195 43.45-6.35-3.56-12.76-7.4-19.2-11.54-41.287-26.541-83.666-141.517-91.167-180.89-.592-3.106.472-6.303 2.837-8.401a451.14 451.14 0 0 1 34.29-27.529c78.6-57.07 169.39-84.98 243.87-89.79 8.1-.52 15.9-.97 23.36-1.01 10.05-.05 20.7.38 31.78 1.36 88.01 7.77 204.01 49.69 276.81 147.85a330.235 330.235 0 0 1 21.16 32.36c6.09 10.631 2.04 18.77-3.6 24.49z" fill="#ffe993"/><path d="M345.552 518.018c-6.35-3.56-23.56-24.86-30-29-41.036-26.38-83.151-140.123-91.027-180.164-.706-3.592.594-7.27 3.338-9.694a451.568 451.568 0 0 1 33.649-26.962l.37.34c-1.33.48 35.67 105.48 52.67 135.48 7.549 13.321 24 58 33 79 4.409 17.648-.813 27.836-2 31z" fill="#fff"/><path d="M694.552 420.018c-16.987 87.8-93.737 150-186.5 150-105.21 0-190.5-85.29-190.5-190.5 0-5.029.195-10.012.577-14.943" fill="#ffe993"/><path d="M508.052 571.019c-105.593 0-191.5-85.907-191.5-191.5 0-5.002.195-10.056.58-15.02.043-.55.523-.957 1.074-.92a1 1 0 0 1 .92 1.074 193.13 193.13 0 0 0-.574 14.866c0 104.491 85.009 189.5 189.5 189.5 44.57 0 87.556-14.864 121.038-41.854 33.397-26.921 56.297-65.04 64.48-107.336a1 1 0 1 1 1.964.38c-8.273 42.759-31.424 81.297-65.188 108.514-33.837 27.275-77.269 42.296-122.294 42.296z" fill="#112c41"/><path d="M837.21 375.376c6.127 11.264 1.715 19.692-4.324 25.556-4.201 4.07-9.522 8.201-15.734 12.301 16.019-8.43 29.334-17.274 37.738-25.776 5.644-5.718 9.689-13.859 3.606-24.486-69.61-121.466-200.848-171.631-297.969-180.216a343.69 343.69 0 0 0-18.682-1.147c99.918 14.218 228.055 70.279 295.365 193.768z" fill="#ffd169"/><path d="M854.892 387.458c-34.13 34.52-149.15 74.67-198.13 69.8.62-2.28 1.966-4.8 3.64-7.86 11.15-20.38 10.93-55.38 11.15-60.38.21-5 30-32 86-46 31.316-7.829 66.05-13.15 79.78-12.41a330.235 330.235 0 0 1 21.16 32.36c6.09 10.631 2.04 18.77-3.6 24.49z" fill="#fff"/><g fill="#112c41"><path d="M312.551 488.019a.995.995 0 0 1-.568-.178c-37.545-25.993-75.26-120.142-88.051-178.112-.962-4.36.568-8.873 3.993-11.775 46.684-39.564 96.897-69.467 149.245-88.878 40.349-14.962 82.263-24.01 128.137-27.663 8-.631 15.881-.974 23.428-1.017 10.303-.046 21.017.407 31.879 1.364 54.396 4.808 111.106 21.817 159.687 47.893 60.322 32.378 107.11 77.066 139.062 132.822 5.259 9.187 3.994 17.829-3.761 25.686-16.329 16.523-51.672 35.366-94.542 50.404-42.88 15.042-81.995 22.312-104.633 19.447a1 1 0 0 1-.867-1.118c.07-.548.575-.93 1.118-.867 22.01 2.783 61.754-4.63 103.72-19.35 41.962-14.72 77.897-33.849 93.781-49.923 7.047-7.139 8.208-14.974 3.449-23.286-31.764-55.426-78.286-99.855-138.273-132.054-48.347-25.951-104.785-42.877-158.917-47.663-10.801-.951-21.453-1.408-31.693-1.356-7.498.043-15.331.383-23.281 1.011-45.688 3.637-87.426 12.647-127.6 27.544-52.128 19.33-102.141 49.115-148.647 88.528-2.858 2.422-4.135 6.185-3.333 9.819 12.719 57.649 50.112 151.196 87.236 176.898a1.001 1.001 0 0 1-.569 1.824z"/><path d="M663.106 444.607a1 1 0 0 1-.901-1.433c11.701-24.376 7.733-54.513 7.691-54.814a1 1 0 0 1 1.981-.273c.042.308 4.088 31.04-7.87 55.952a.996.996 0 0 1-.901.568zM488.725 195.983c-.24 10.049 19.919 18.677 45.036 19.277 25.116.61 45.674-7.051 45.924-17.099.154-6.181-7.441-11.833-19.158-15.406-11.087-.976-21.731-1.41-31.786-1.36-7.454.043-15.265.376-23.354 1.014-10.059 3.103-16.53 7.963-16.662 13.574z"/><path d="M663.115 445.97c3.304 8.821 48.481.038 100.899-19.6 33.508-12.562 61.86-26.511 77.103-37.26 8.606-6.054 13.024-11.089 11.834-14.268-1.044-2.795-6.313-3.83-14.694-3.298-18.014 1.143-50.421 9.486-86.205 22.898-44.333 16.6-79.641 35.667-87.491 46.488-.116.17-.241.34-.357.51a.296.296 0 0 0-.047.076c-1.129 1.736-1.504 3.228-1.042 4.454z"/><path d="M673.866 450.428c-6.748 0-10.661-1.369-11.688-4.105-.563-1.496-.195-3.273 1.096-5.283l.29-.43.169-.242c8.172-11.267 44.339-30.526 87.968-46.862 34.615-12.974 67.757-21.771 86.492-22.959 9.346-.594 14.479.697 15.694 3.946 1.368 3.652-2.622 8.701-12.196 15.436-15.904 11.215-44.812 25.189-77.328 37.379-25.406 9.519-49.92 16.805-69.027 20.517-8.933 1.735-16.099 2.603-21.47 2.603zm168.347-78.019c-1.157 0-2.448.041-3.892.133-18.552 1.177-51.474 9.927-85.917 22.836-43.297 16.211-79.086 35.184-87.033 46.139l-.34.485c-.996 1.534-1.314 2.731-.981 3.615l.001.002c1.054 2.815 9.729 4.356 30.904.241 19.001-3.691 43.401-10.946 68.707-20.427 32.365-12.133 61.105-26.018 76.878-37.141 11.701-8.231 11.922-11.903 11.474-13.1-.336-.9-1.98-2.783-9.801-2.783z"/></g><path d="M616.552 682.018c-55.89 12.34-115.18 15.08-170.38 6.43-68.69-10.74-131.04-39.08-172.62-88.43-23.15-27.47-25.89-49.96-21-63 6-16 18-12 22.7 1.84-13.7-53.1 7.94-71.33 28.76-46.21-3.85-28.54 10.64-47.15 37.9-16.76 12.04 13.41 21.86 24.85 28.54 30.42.8-.54 17.28-10.92 54.69 16.28 3.74 2.71 8.71 5.95 14.67 9.39 48.17 27.77 167.74 31.04 224.75-91.05 3.91-5.95 15.89-14.04 32.93-22.8 14.97-7.7 33.84-15.93 54.56-23.69 23.01-8.62 44.62-15.15 61.91-19.01 9.6-2.15 17.87-3.47 24.3-3.88 12.14 126.371-58.35 274.39-221.71 310.47z" fill="#ffd6c0"/><path d="M512.587 694.495c-22.695 0-45.016-1.682-66.569-5.059-74.166-11.597-134.068-42.294-173.23-88.773-10.747-12.753-17.884-25.298-21.214-37.288-3.507-12.629-1.913-21.495.042-26.708 3.635-9.695 8.878-11.054 11.65-11.024 3.367.053 6.594 2.062 9.185 5.536-5.115-25.129-2.124-44.107 8.138-49.349 6.44-3.291 14.376-.457 22.072 7.768-1.34-14.709 2.292-25.757 9.752-29.203 5.466-2.524 15.15-2.001 30.245 14.826 2.185 2.434 4.297 4.803 6.331 7.083 8.669 9.724 16.195 18.164 21.576 22.788 3.538-1.842 20.783-8.313 55.167 16.687 4.069 2.948 9.112 6.175 14.582 9.333 25.111 14.478 71.062 22.585 117.108 8.064 32.185-10.15 76.742-35.507 106.236-98.671.021-.044.044-.086.07-.126 4.936-7.509 20.838-16.729 33.309-23.14 15.267-7.853 34.17-16.061 54.667-23.737 22.143-8.295 44.177-15.061 62.042-19.05 9.703-2.173 17.931-3.486 24.455-3.902a1.004 1.004 0 0 1 1.059.902c3.094 32.204.883 64.863-6.569 97.071-7.727 33.39-20.722 64.564-38.625 92.656-40.108 62.934-101.416 105.057-177.295 121.815-34.645 7.65-69.84 11.5-104.184 11.501zM263.132 527.643c-3.868 0-7.289 3.449-9.643 9.727-8.979 23.945 13.672 53.512 20.828 62.004 38.847 46.105 98.327 76.565 172.01 88.086 53.927 8.45 112.715 6.231 170.01-6.418 75.35-16.642 136.224-58.461 176.04-120.937 17.781-27.9 30.688-58.864 38.363-92.033 7.329-31.672 9.555-63.785 6.619-95.458-6.262.473-14.052 1.747-23.178 3.791-17.779 3.969-39.718 10.707-61.778 18.971-20.425 7.649-39.254 15.825-54.453 23.643-17.266 8.876-28.806 16.828-32.513 22.401-29.802 63.771-74.86 89.399-107.416 99.665-46.625 14.704-93.217 6.457-118.709-8.239-5.529-3.191-10.632-6.458-14.757-9.447-36.952-26.868-52.883-16.706-53.543-16.261a.999.999 0 0 1-1.2-.061c-5.525-4.607-12.935-12.918-22.317-23.441a3010.207 3010.207 0 0 0-6.326-7.079c-11.141-12.42-21.053-17.516-27.917-14.346-7.054 3.257-10.291 15.152-8.247 30.304a1 1 0 0 1-1.761.772c-7.577-9.142-15.707-12.758-21.744-9.675-7.935 4.053-14.078 20.889-5.278 54.997a1 1 0 0 1-1.915.572c-2.356-6.94-6.702-11.468-11.071-11.537l-.104-.001zm353.42 154.376h.01z" fill="#112c41"/><path d="M406.124 530.989c-13.078-7.657-22.664-13.432-35.667-24.683" fill="#ffd6c0"/><path d="M406.123 531.988a.996.996 0 0 1-.504-.137c-13.79-8.073-23.083-13.771-35.816-24.789a1.001 1.001 0 0 1 1.309-1.513c12.604 10.907 21.827 16.561 35.518 24.576a.998.998 0 0 1-.507 1.863zm-74.673 15.734a.995.995 0 0 1-.742-.33c-13.179-14.579-24.044-35.993-27.681-54.555a1 1 0 0 1 1.963-.385c3.572 18.231 14.25 39.27 27.202 53.599a1 1 0 0 1-.742 1.671zm-33.286 32.341a.995.995 0 0 1-.779-.373c-5.302-6.578-15.349-20.584-23.069-40.476a1 1 0 0 1 1.864-.724c7.623 19.64 17.534 33.457 22.763 39.945a1 1 0 0 1-.779 1.628z" fill="#112c41"/><path d="M125.1 79.435c-4.372 20.534-13.285 36.909-25.475 35.843-10.801-.944-17.488-18.85-18.656-39.82-1.622-29.109 13.297-37.033 25.475-35.843 16.001 1.563 23.782 15.749 18.656 39.82z" fill="#ffd6c0"/><path d="M100.723 116.326c-.393 0-.787-.018-1.184-.052-10.559-.923-18.24-16.922-19.568-40.76-.781-14.017 2.255-24.732 8.779-30.99 4.664-4.473 10.985-6.573 17.791-5.904 6.833.667 12.36 3.637 15.983 8.587 5.301 7.243 6.53 18.458 3.554 32.436-4.922 23.119-14.342 36.683-25.355 36.683zm3.426-75.823c-3.809 0-9.311.953-14.014 5.464-6.09 5.841-8.914 16.02-8.167 29.435 1.25 22.436 8.381 38.061 17.745 38.879 10.408.908 19.542-12.194 24.41-35.056 2.854-13.404 1.744-24.068-3.211-30.838-3.324-4.542-8.225-7.159-14.564-7.778a23.126 23.126 0 0 0-2.199-.106zm20.952 38.932h.01z" fill="#112c41"/><path d="M165.997 74.663c-4.633 21.76-14.078 39.111-26.994 37.982-11.445-1.001-18.531-19.975-19.769-42.196-1.719-30.846 14.09-39.243 26.994-37.982 16.955 1.656 25.2 16.689 19.769 42.196z" fill="#ffd6c0"/><path d="M140.165 113.695c-.415 0-.831-.018-1.25-.055-11.157-.975-19.275-17.907-20.681-43.136-.826-14.834 2.384-26.174 9.285-32.792 4.929-4.728 11.614-6.941 18.806-6.241 7.224.706 13.065 3.844 16.895 9.076 5.607 7.661 6.905 19.529 3.755 34.324-5.21 24.468-15.171 38.824-26.81 38.824zm3.63-80.346c-4.047 0-9.894 1.013-14.892 5.807-6.466 6.202-9.465 17.003-8.672 31.237 1.327 23.806 8.905 40.385 18.857 41.255 11.08.97 20.764-12.937 25.93-37.194l.978.208-.978-.208c3.028-14.221 1.848-25.538-3.413-32.726-3.533-4.827-8.74-7.608-15.475-8.267a24.465 24.465 0 0 0-2.335-.112z" fill="#112c41"/><path d="M215.552 113.019c4-41-57.955-65.091-69-43-7 14 7 32 21 44-19 13-28.505 30.093-33.697 47.529" fill="#ffd6c0"/><path d="M133.855 162.548a1 1 0 0 1-.959-1.286c6.095-20.465 16.906-35.961 33.03-47.332-8.066-7.104-28.672-27.552-20.269-44.359 4.253-8.506 15.911-11.195 30.423-7.015 21.407 6.166 42.865 25.981 40.467 50.559a.994.994 0 0 1-1.092.898.998.998 0 0 1-.898-1.092c2.293-23.502-18.398-42.5-39.03-48.443-13.525-3.896-24.286-1.602-28.08 5.987-8.12 16.24 13.834 36.86 20.756 42.793a1 1 0 0 1-.086 1.584c-16.318 11.166-27.212 26.536-33.304 46.99a.999.999 0 0 1-.958.716zm54.698 202.471a1 1 0 0 1-.875-.514c-4.949-8.909-9.049-20.054-12.534-34.074a1 1 0 0 1 1.941-.483c3.441 13.847 7.479 24.832 12.341 33.584a1 1 0 0 1-.873 1.487z" fill="#112c41"/><path d="M616.552 682.018c-55.89 12.34-115.18 15.08-170.38 6.43 267.38 10.57 370.38-133.43 367.79-313.02 9.6-2.15 17.87-3.47 24.3-3.88 12.14 126.371-58.35 274.39-221.71 310.47z" fill="#f5b9ab"/><path d="M512.587 694.495c-22.695 0-45.016-1.682-66.569-5.059-74.166-11.597-134.068-42.294-173.23-88.773-10.747-12.753-17.884-25.298-21.214-37.288-3.507-12.629-1.913-21.495.042-26.708 3.635-9.695 8.878-11.054 11.65-11.024 3.367.053 6.594 2.062 9.185 5.536-5.115-25.129-2.124-44.107 8.138-49.349 6.44-3.291 14.376-.457 22.072 7.768-1.34-14.709 2.292-25.757 9.752-29.203 5.466-2.524 15.15-2.001 30.245 14.826 2.185 2.434 4.297 4.803 6.331 7.083 8.669 9.724 16.195 18.164 21.576 22.788 3.538-1.842 20.783-8.313 55.167 16.687 4.069 2.948 9.112 6.175 14.582 9.333 25.111 14.478 71.062 22.585 117.108 8.064 32.185-10.15 76.742-35.507 106.236-98.671.021-.044.044-.086.07-.126 4.936-7.509 20.838-16.729 33.309-23.14 15.267-7.853 34.17-16.061 54.667-23.737 22.143-8.295 44.177-15.061 62.042-19.05 9.703-2.173 17.931-3.486 24.455-3.902a1.004 1.004 0 0 1 1.059.902c3.094 32.204.883 64.863-6.569 97.071-7.727 33.39-20.722 64.564-38.625 92.656-40.108 62.934-101.416 105.057-177.295 121.815-34.645 7.65-69.84 11.5-104.184 11.501zM263.132 527.643c-3.868 0-7.289 3.449-9.643 9.727-8.979 23.945 13.672 53.512 20.828 62.004 38.847 46.105 98.327 76.565 172.01 88.086 53.927 8.45 112.715 6.231 170.01-6.418 75.35-16.642 136.224-58.461 176.04-120.937 17.781-27.9 30.688-58.864 38.363-92.033 7.329-31.672 9.555-63.785 6.619-95.458-6.262.473-14.052 1.747-23.178 3.791-17.779 3.969-39.718 10.707-61.778 18.971-20.425 7.649-39.254 15.825-54.453 23.643-17.266 8.876-28.806 16.828-32.513 22.401-29.802 63.771-74.86 89.399-107.416 99.665-46.625 14.704-93.217 6.457-118.709-8.239-5.529-3.191-10.632-6.458-14.757-9.447-36.952-26.868-52.883-16.706-53.543-16.261a.999.999 0 0 1-1.2-.061c-5.525-4.607-12.935-12.918-22.317-23.441a3010.207 3010.207 0 0 0-6.326-7.079c-11.141-12.42-21.053-17.516-27.917-14.346-7.054 3.257-10.291 15.152-8.247 30.304a1 1 0 0 1-1.761.772c-7.577-9.142-15.707-12.758-21.744-9.675-7.935 4.053-14.078 20.889-5.278 54.997a1 1 0 0 1-1.915.572c-2.356-6.94-6.702-11.468-11.071-11.537l-.104-.001zm353.42 154.376h.01z" fill="#112c41"/></svg></g><g transform="translate(551.0 1009.0) rotate(0.0 117.5 131.0) scale(1.003133190475784 1.0006416328027132)"><svg width="234.266" height="261.832" viewBox="0 0 234.266 261.832"><path d="m42.623 1.079-.482-.077C67.809 5.086 77.28 65.41 66.064 135.903c-6.485 40.76-18.458 71.964-31.633 97.401a1.673 1.673 0 0 0 1.222 2.425l157.688 25.088c.469.075.938-.151 1.17-.566 15.651-27.965 25.321-58.972 32.863-99.511 13.057-70.176 4.174-129.095-24.253-134.126L42.623 1.079z" fill="#dedffe"/><path d="M193.516 261.832c-.111 0-.222-.008-.333-.026L35.495 236.717a2.646 2.646 0 0 1-1.967-1.435 2.65 2.65 0 0 1 .014-2.438c15.622-30.161 25.937-61.922 31.534-97.098C76.395 64.604 66.251 5.851 41.983 1.99h-.001a1 1 0 0 1 .316-1.975l.007.001.474.075h.001l160.499 25.536c6.729 1.191 12.534 5.26 17.271 12.099 14.942 21.569 17.934 68.775 7.808 123.198-7.884 42.375-18.054 73.159-32.974 99.816a2.147 2.147 0 0 1-1.868 1.092zM50.278 3.31c19.895 13.907 27.169 67.407 16.773 132.751-5.631 35.391-16.011 67.35-31.733 97.704a.67.67 0 0 0-.005.617.669.669 0 0 0 .496.361l157.688 25.088c.059.014.112-.017.14-.066 14.81-26.459 24.911-57.055 32.754-99.206 10.031-53.917 7.163-100.547-7.486-121.693-4.422-6.384-9.791-10.174-15.958-11.265z" fill="#112c41"/><path d="M2.288 40.673a1.537 1.537 0 0 1-1.224-1.958C7.582 16.591 22.64.765 42.14 1.003l160.981 25.612c-12.099-1.892-28.995 4.66-41.275 38.724a.893.893 0 0 1-.982.563z" fill="#fff"/><path d="M161.01 66.915c-.1 0-.202-.008-.303-.024L2.131 41.661a2.52 2.52 0 0 1-1.737-1.146 2.553 2.553 0 0 1-.289-2.083C7.102 14.683 23.021 0 41.716 0l.437.002c.048 0 .097.005.145.012l160.981 25.612a1 1 0 0 1-.311 1.976c-9.357-1.465-27.01 1.54-40.18 38.076a1.888 1.888 0 0 1-1.778 1.237zM2.446 39.686l158.495 25.217c9.848-27.258 22.334-36.437 32.265-38.853L42.056 2.002A38.084 38.084 0 0 0 41.719 2C23.944 2 8.76 16.133 2.024 38.998a.545.545 0 0 0 .061.45.522.522 0 0 0 .361.238z" fill="#112c41"/></svg></g><g transform="translate(645.0 1084.0) rotate(0.0 81.5 110.5) scale(1.0341655299305268 1.0323050765120234)"><svg width="157.615" height="214.084" viewBox="0 0 157.615 214.084"><path d="M156.615 71.694c-13.078-7.657-26.486-17.684-35.669-24.683-6.917-5.271-16.505-17.005-28.543-30.416C65.143-13.796 50.65 4.812 54.501 33.351c-20.816-25.114-42.454-6.887-28.76 46.212-4.698-13.839-16.698-17.839-22.698-1.839-4.891 13.042-2.15 35.528 21 63 28.125 33.375 65.753 57.145 108.416 72.36" fill="#ffd6c0"/><g fill="#112c41"><path d="M132.459 214.084a.992.992 0 0 1-.336-.059c-45.171-16.109-81.792-40.555-108.845-72.657-10.747-12.753-17.885-25.298-21.214-37.287-3.507-12.628-1.913-21.494.042-26.708 3.636-9.695 8.847-11.061 11.65-11.024 3.367.053 6.593 2.062 9.184 5.535-5.112-25.128-2.12-44.106 8.142-49.348 6.44-3.289 14.375-.458 22.067 7.764C51.809 15.594 55.44 4.545 62.9 1.1c5.465-2.525 15.151-2.001 30.247 14.828 2.944 3.279 5.741 6.459 8.389 9.468 7.978 9.067 14.868 16.897 20.015 20.82 10.615 8.089 23.143 17.34 35.568 24.616a.998.998 0 0 1 .357 1.368.997.997 0 0 1-1.368.357c-12.518-7.329-25.106-16.625-35.77-24.75-5.306-4.043-11.925-11.566-20.305-21.089-2.644-3.005-5.437-6.18-8.376-9.454C80.517 4.842 70.602-.256 63.739 2.916c-7.054 3.258-10.291 15.152-8.246 30.301a1 1 0 0 1-1.761.772c-7.575-9.139-15.701-12.754-21.74-9.672-7.934 4.053-14.079 20.888-5.282 54.996a1 1 0 0 1-1.915.571c-2.356-6.938-6.701-11.467-11.069-11.536-3.907-.033-7.371 3.393-9.746 9.727-6.06 16.158 1.727 39.337 20.828 62.004 26.822 31.828 63.154 56.074 107.987 72.062a1 1 0 0 1-.336 1.943z"/><path d="M81.941 88.428a.995.995 0 0 1-.742-.33C68.021 73.52 57.155 52.106 53.518 33.543a1 1 0 0 1 1.963-.385c3.572 18.231 14.25 39.27 27.202 53.599a1 1 0 0 1-.742 1.671zm-33.286 32.341a.995.995 0 0 1-.779-.373c-5.302-6.578-15.349-20.584-23.069-40.476a1 1 0 0 1 1.864-.724c7.623 19.64 17.533 33.457 22.762 39.945a1 1 0 0 1-.778 1.628z"/></g></svg></g><g transform="translate(1109.0 523.0) rotate(5.745441740165245 -161.0 134.0) scale(-1.1614946488282252 1.1578174277444162)"><svg width="277.229" height="231.47" viewBox="0 0 277.229 231.47"><circle cx="247.656" cy="102.004" fill="#ffd6c0" r="28.57"/><path d="M244.644 130.414a28.567 28.567 0 0 0 31.223-23.9A28.572 28.572 0 0 1 222.273 90q.086-.762.207-1.509a28.589 28.589 0 0 0 22.164 41.924z" fill="#f5b9ab"/><path d="M247.678 131.575a29.589 29.589 0 0 1-23.77-11.952 1 1 0 0 1 1.606-1.193 27.569 27.569 0 1 0-4.976-21.4 1 1 0 0 1-1.968-.358 29.571 29.571 0 1 1 29.108 34.907z" fill="#112c41"/><path d="M233.182 108.859a1 1 0 0 1-.973-.776 18.452 18.452 0 0 1 2.185-13.792A17.56 17.56 0 0 1 260.52 89.7a1 1 0 1 1-1.248 1.563 15.56 15.56 0 0 0-23.168 4.07 16.466 16.466 0 0 0-1.946 12.306 1 1 0 0 1-.751 1.2.966.966 0 0 1-.225.02z" fill="#112c41"/><circle cx="143.688" cy="127.943" fill="#ffd6c0" r="102.5"/><path d="M105.269 32.916c.32-.13.643-.241.964-.367l10.867 9.069c-49.479 20.172-73.762 73.994-54.03 122.8 19.768 48.9 76.227 74.243 125.891 54.164A98.268 98.268 0 0 0 203 211.57a102.51 102.51 0 1 1-97.731-178.654z" fill="#f5b9ab"/><path d="M143.675 231.5a103.747 103.747 0 1 1 38.807-7.6 103.3 103.3 0 0 1-38.807 7.6zm.025-205.112a101.729 101.729 0 1 0 39.626 8.112 101.38 101.38 0 0 0-39.626-8.112z" fill="#112c41"/><ellipse cx="126.535" cy="112.293" fill="#112c41" rx="6.828" ry="9.104" transform="matrix(.92709884 -.37481696 .37481696 .92709884 -32.865 55.614)"/><ellipse cx="111.4" cy="85.723" fill="#112c41" rx="14.13" ry="9.336" transform="matrix(.86245184 -.50613914 .50613914 .86245184 -28.065 68.176)"/><ellipse cx="210.167" cy="121.3" fill="#ffa9dc" rx="12.121" ry="8.009" transform="matrix(.88267705 -.46998003 .46998003 .88267705 -32.351 113.007)"/><ellipse cx="118.423" cy="139.798" fill="#ffa9dc" rx="8.009" ry="12.121" transform="matrix(.07459583 -.99721385 .99721385 .07459583 -29.819 247.463)"/><g fill="#112c41"><ellipse cx="198.688" cy="69.502" rx="8.6" ry="13.016" transform="matrix(.21807511 -.97593199 .97593199 .21807511 87.53 248.252)"/><path d="M196.394 62.64a17.19 17.19 0 0 1 3.733.421 14.84 14.84 0 0 1 7.43 3.9c.905.939 2.354 2.83 1.882 4.942-.587 2.626-4.064 4.46-8.456 4.46a17.133 17.133 0 0 1-3.734-.422c-5.828-1.3-10.092-5.352-9.313-8.843.587-2.626 4.065-4.46 8.458-4.46m0-2c-5.269 0-9.583 2.33-10.408 6.024-1.037 4.638 3.814 9.666 10.826 11.238a19.128 19.128 0 0 0 4.171.47c5.269 0 9.583-2.33 10.408-6.024 1.036-4.635-3.812-9.664-10.828-11.232a19.178 19.178 0 0 0-4.17-.469z"/><ellipse cx="194.736" cy="98.632" rx="6.828" ry="9.104" transform="matrix(.99979717 -.02013974 .02013974 .99979717 -1.947 3.943)"/><path d="M147.13 125.111c3.926 11.862 13.4 19.595 22.647 17.809s15.162-12.487 14.391-24.958z"/><path d="M167.105 144.175c-8.685 0-17.177-7.428-20.924-18.75a1 1 0 0 1 .76-1.3l37.037-7.149a1 1 0 0 1 1.188.92c.817 13.209-5.576 24.144-15.2 26a15.132 15.132 0 0 1-2.861.279zm-18.65-18.3c4.029 10.963 12.781 17.678 21.132 16.064s13.976-11.1 13.635-22.775z"/></g><path d="M176.564 138.971c-3.753-3.592-10.1-4.662-16.064-2.252a17.713 17.713 0 0 0-4.123 2.342c4.029 3.244 8.742 4.758 13.4 3.859a14.683 14.683 0 0 0 7.112-3.625q-.159-.165-.325-.324z" fill="#ffa6e0"/><path d="M167.121 144.173a18.217 18.217 0 0 1-11.371-4.333 1 1 0 0 1 .02-1.574 18.818 18.818 0 0 1 4.355-2.475c6.124-2.476 13.008-1.487 17.13 2.458.121.116.239.233.354.354a1 1 0 0 1-.05 1.434 15.613 15.613 0 0 1-7.594 3.865 15.025 15.025 0 0 1-2.844.271zm-9.044-5.083a15.015 15.015 0 0 0 11.51 2.848 13.441 13.441 0 0 0 5.8-2.681c-3.609-3.042-9.343-3.7-14.511-1.611a16.92 16.92 0 0 0-2.799 1.444z" fill="#112c41"/><circle cx="31.508" cy="147.949" fill="#ffd6c0" r="30.5"/><path d="M60.437 157.932a33.178 33.178 0 0 1-5.358 5.413c-12.966 10.761-32.489 8.455-43.243-4.5-7.059-8.505-8.194-19.14-4.836-28.866-8.226 11.018-8.7 26.05.473 37.11a30.492 30.492 0 0 0 42.948 4c4.457-3.696 8.261-8.042 10.016-13.157z" fill="#f5b9ab"/><path d="M31.5 179.466a31.508 31.508 0 1 1 28.232-45.5 1 1 0 0 1-1.793.886A29.6 29.6 0 0 0 20.451 120.6a29.5 29.5 0 0 0 22.114 54.7A31.46 31.46 0 0 0 59.5 157.58a1 1 0 0 1 1.872.7 33.523 33.523 0 0 1-18.058 18.867 31.464 31.464 0 0 1-11.814 2.319z" fill="#112c41"/><path d="M49.253 146.854a1 1 0 0 1-.954-.7 17.277 17.277 0 0 0-21.49-11.55A16.764 16.764 0 0 0 16.2 144.713a1 1 0 0 1-1.872-.713 18.755 18.755 0 0 1 11.877-11.3 19.277 19.277 0 0 1 24 12.853 1 1 0 0 1-.953 1.3z" fill="#112c41"/><path d="M37 107.924c18.817-19.516 45.809-36.393 77.86-46.892a213.323 213.323 0 0 1 40.476-9.084 64.009 64.009 0 0 0-10.241-25.543c.136.1.282.188.408.288a75.849 75.849 0 0 1 22.07 24.157 187.56 187.56 0 0 1 7.542-.288c18.32-.309 35.367 2.184 50.027 7.2a1.861 1.861 0 0 0 2.318-2.511 89.573 89.573 0 0 0-17.986-25.972C182.5 2.165 139.131-7.2 99.331 8.89a108.729 108.729 0 0 0-18.955 9.918c-30.6 20.116-48.015 54.068-45.907 88.174a1.477 1.477 0 0 0 2.531.942z" fill="#fcaa51"/><path d="M37 107.924a155.9 155.9 0 0 1 15.824-14.263c-1.663-30.338 13.9-60.48 41.124-78.367a98.089 98.089 0 0 1 30.159-13.153 109.121 109.121 0 0 0-43.731 16.667c-30.6 20.116-48.015 54.068-45.907 88.174a1.477 1.477 0 0 0 2.531.942z" fill="#ff9522"/><path d="M35.93 109.2a2.435 2.435 0 0 1-.87-.157 2.671 2.671 0 0 1-1.619-2.551c-1.667-34.7 16.108-68.616 46.388-88.514A109.848 109.848 0 0 1 98.956 7.963 106.761 106.761 0 0 1 159.4 1.9a97.232 97.232 0 0 1 50.778 26.675 89.845 89.845 0 0 1 18.115 26.1 2.9 2.9 0 0 1-.331 3.24 3.092 3.092 0 0 1-3.314.741c-16.6-5.658-36.317-8.015-57.02-6.81a1.015 1.015 0 0 1-.92-.491 76.832 76.832 0 0 0-17.971-21.022 66.817 66.817 0 0 1 7.574 21.444 1 1 0 0 1-.864 1.164 212.386 212.386 0 0 0-40.28 9.038C84.77 71.937 57.4 88.362 38.093 108.229a3.06 3.06 0 0 1-2.163.971zm44.449-90.39.549.836C51.236 39.156 33.806 72.4 35.439 106.392c.01.2.061.675.328.776a.941.941 0 0 0 .891-.333c19.526-20.095 47.188-36.7 77.891-46.755a214.7 214.7 0 0 1 39.607-8.992 62.841 62.841 0 0 0-9.888-24.109 1 1 0 0 1 1.38-1.4 76.631 76.631 0 0 1 22.476 24.236c20.738-1.134 40.5 1.263 57.173 6.95a1.147 1.147 0 0 0 1.186-.191c.279-.308.116-.8 0-1.067a87.881 87.881 0 0 0-17.714-25.52 95.246 95.246 0 0 0-49.746-26.121 104.778 104.778 0 0 0-59.318 5.951 107.879 107.879 0 0 0-18.777 9.829z" fill="#112c41"/></svg></g><g transform="translate(345.0 448.0) rotate(0.0 187.0 90.0) scale(1.0293502433009665 1.030620891830612)"><svg width="363.336" height="174.652" viewBox="0 0 363.336 174.652"><g fill="#9797f7"><path d="M77.754 174.652a2.495 2.495 0 0 1-2.285-1.486L.215 3.514A2.502 2.502 0 0 1 2.805.018l358.336 44.083a2.5 2.5 0 0 1 .708 4.767L78.768 174.437a2.503 2.503 0 0 1-1.014.215zM6.575 5.52l72.451 163.333L351.564 47.961z"/><path d="M123.402 153.815a2.501 2.501 0 0 1-2.287-1.487l-19.113-43.087-43.58 19.331a2.5 2.5 0 1 1-2.028-4.57l45.865-20.345a2.498 2.498 0 0 1 3.299 1.271l20.126 45.372a2.5 2.5 0 0 1-2.282 3.515z"/></g></svg></g><g transform="translate(1027.0 425.0) rotate(0.0 109.0 71.0) scale(1.0204224923585334 1.0289184038722112)"><svg width="213.637" height="138.009" viewBox="0 0 213.637 138.009"><path d="M15.161 2.503 1.354 27.762a2.887 2.887 0 0 0 1.149 3.918l192.055 104.974a2.887 2.887 0 0 0 3.918-1.149l13.806-25.259a2.887 2.887 0 0 0-1.149-3.918L19.079 1.354a2.888 2.888 0 0 0-3.918 1.149zm4.181 24.873a5.54 5.54 0 0 1-2.59-8.834c1.406-1.712 3.788-2.41 5.896-1.729a5.54 5.54 0 0 1 2.59 8.834c-1.407 1.712-3.789 2.411-5.896 1.729z" fill="#ffa9dc"/><g fill="#112c41"><path d="M195.937 138.011a3.867 3.867 0 0 1-1.859-.479L2.024 32.558a3.891 3.891 0 0 1-1.547-5.275L14.283 2.024A3.862 3.862 0 0 1 16.6.158a3.866 3.866 0 0 1 2.958.319l192.054 104.975c.911.498 1.574 1.321 1.866 2.317s.179 2.047-.319 2.958l-13.807 25.259a3.904 3.904 0 0 1-3.415 2.025zM17.697 2c-.178 0-.358.025-.534.077a1.873 1.873 0 0 0-1.125.906L2.232 28.242a1.89 1.89 0 0 0 .751 2.562l192.055 104.974c.442.241.952.296 1.436.155a1.877 1.877 0 0 0 1.125-.906l13.807-25.259c.242-.442.297-.953.155-1.437s-.463-.883-.906-1.125L18.6 2.232A1.88 1.88 0 0 0 17.697 2zm-2.536.503h.01zm5.835 26.132c-.658 0-1.32-.101-1.963-.308a6.58 6.58 0 0 1-4.305-4.395 6.578 6.578 0 0 1 1.25-6.025 6.503 6.503 0 0 1 6.977-2.045 6.58 6.58 0 0 1 4.306 4.396 6.578 6.578 0 0 1-1.25 6.024 6.51 6.51 0 0 1-5.015 2.353zm-.01-11.083a4.493 4.493 0 0 0-3.461 1.625c-.986 1.201-1.306 2.729-.876 4.193.429 1.463 1.523 2.577 3.001 3.055a4.484 4.484 0 0 0 4.815-1.412c.986-1.201 1.306-2.729.877-4.192s-1.523-2.578-3.001-3.056a4.388 4.388 0 0 0-1.355-.213z"/><path d="M37.547 24.265a1 1 0 0 1-.877-1.48l4.973-9.098a1 1 0 1 1 1.755.959l-4.973 9.098a.997.997 0 0 1-.878.521zm24.367 13.319a1 1 0 0 1-.877-1.48l4.973-9.098a1 1 0 1 1 1.755.959l-4.973 9.098a.999.999 0 0 1-.878.521zm23.548 12.871a1 1 0 0 1-.877-1.48l4.973-9.098a1 1 0 1 1 1.755.959l-4.973 9.098a.997.997 0 0 1-.878.521zm24.367 13.319a1 1 0 0 1-.877-1.48l4.973-9.098a1 1 0 1 1 1.755.959l-4.973 9.098a.997.997 0 0 1-.878.521zm24.762 13.534a1 1 0 0 1-.877-1.48l4.973-9.098a.999.999 0 1 1 1.755.959l-4.973 9.098a.997.997 0 0 1-.878.521zm24.367 13.319a1 1 0 0 1-.877-1.48l4.973-9.098a1 1 0 1 1 1.755.959l-4.973 9.098a.997.997 0 0 1-.878.521zm23.549 12.871a1 1 0 0 1-.877-1.48l4.973-9.098a1 1 0 0 1 1.755.959l-4.973 9.098a.997.997 0 0 1-.878.521z"/></g></svg></g><g transform="translate(1162.0 669.0) rotate(0.0 105.5 128.0) scale(1.002770688680097 1.0009775171065494)"><svg width="210.417" height="255.75" viewBox="0 0 210.417 255.75"><path d="M64.866 135.477a2.5 2.5 0 0 1-1.497-4.503l43.964-32.819a2.5 2.5 0 1 1 2.991 4.007L66.36 134.98a2.491 2.491 0 0 1-1.494.497z" fill="#112c41"/><path d="m53.099 69.122 73.446 185.627s-43.13-49.349-60.804-94.875c-18.093-46.607-27.095-89.982-27.095-89.982z" fill="#fcaa51"/><path d="M126.546 255.75a.997.997 0 0 1-.753-.342c-.433-.495-43.449-50.004-60.983-95.171-17.917-46.15-27.052-89.707-27.142-90.141a.998.998 0 0 1 .926-1.201l14.454-.77a.998.998 0 0 1 .983.631l73.446 185.627a1.001 1.001 0 0 1-.931 1.367zM39.87 70.829c1.561 7.156 10.562 46.85 26.803 88.685 14.279 36.782 45.642 76.536 56.686 89.903L52.434 70.159z" fill="#112c41"/><path d="m52.333 69.695 157.084 123.192s-35.05-55.381-73.672-85.27C96.206 77.019 57.18 56.057 57.18 56.057z" fill="#fcaa51"/><path d="M209.417 193.887a1 1 0 0 1-.617-.213L51.715 70.481a1 1 0 0 1-.325-1.122l4.848-13.638a1.001 1.001 0 0 1 1.416-.546c.391.21 39.551 21.352 78.703 51.65 38.318 29.653 73.554 84.971 73.905 85.526.26.411.187.95-.175 1.276a.99.99 0 0 1-.67.26zM53.516 69.352l151.693 118.964c-9.674-14.388-38.871-55.759-70.075-79.907C99.642 80.943 64.147 61.028 57.73 57.496z" fill="#112c41"/><path d="m30.526 34.208-3.41 2.546a5.232 5.232 0 0 1-7.322-1.063L2.04 11.907a5.232 5.232 0 0 1 1.062-7.322l3.41-2.546a5.232 5.232 0 0 1 7.322 1.063l17.754 23.784a5.23 5.23 0 0 1-1.062 7.322z" fill="#ff9522"/><path d="M23.994 38.791a6.225 6.225 0 0 1-5.001-2.501L1.238 12.505a6.24 6.24 0 0 1 1.266-8.721l3.411-2.546A6.193 6.193 0 0 1 10.538.065a6.187 6.187 0 0 1 4.098 2.439l17.755 23.784a6.24 6.24 0 0 1-1.266 8.722l-3.411 2.546a6.2 6.2 0 0 1-3.72 1.235zM9.633 2c-.905 0-1.783.29-2.522.841L3.7 5.387a4.236 4.236 0 0 0-.859 5.922l17.754 23.784a4.237 4.237 0 0 0 5.922.86l3.411-2.546a4.238 4.238 0 0 0 .86-5.923L13.033 3.701A4.207 4.207 0 0 0 9.633 2zm20.894 32.209h.01z" fill="#112c41"/><circle cx="40.428" cy="51.029" fill="#fcaa51" r="27.431"/><path d="M40.488 79.466c-1.375 0-2.759-.1-4.144-.3-7.516-1.091-14.156-5.043-18.699-11.129-4.543-6.085-6.444-13.576-5.353-21.091 1.091-7.516 5.043-14.157 11.129-18.699 12.562-9.377 30.412-6.787 39.791 5.776 9.378 12.562 6.787 30.413-5.776 39.791-4.965 3.704-10.864 5.652-16.948 5.652zm-.093-54.858c-5.5 0-11.042 1.706-15.778 5.241-5.658 4.223-9.332 10.397-10.346 17.384s.753 13.95 4.977 19.608 10.397 9.332 17.384 10.346c6.988 1.014 13.951-.753 19.608-4.977 11.679-8.718 14.088-25.312 5.37-36.992-5.185-6.943-13.152-10.61-21.215-10.61z" fill="#112c41"/><circle cx="40.428" cy="51.029" fill="#ffe993" r="11.374"/><g fill="#112c41"><path d="M40.443 63.399c-3.775 0-7.504-1.717-9.931-4.967-4.081-5.468-2.953-13.237 2.514-17.318a12.297 12.297 0 0 1 9.179-2.33 12.292 12.292 0 0 1 8.138 4.844c4.082 5.467 2.954 13.236-2.514 17.318a12.318 12.318 0 0 1-7.386 2.453zm-.037-22.746a10.3 10.3 0 0 0-6.184 2.063c-4.583 3.422-5.529 9.935-2.108 14.519s9.936 5.528 14.519 2.107c4.584-3.422 5.529-9.935 2.107-14.519a10.31 10.31 0 0 0-6.823-4.061 10.698 10.698 0 0 0-1.511-.109z"/><ellipse cx="56.196" cy="132.219" rx="3.871" ry="9.333" transform="matrix(.9662 -.2577 .2577 .9662 -32.1769 18.949)"/><path d="M58.169 142.293c-1.222 0-2.516-.824-3.711-2.384-1.239-1.617-2.293-3.902-2.969-6.435-1.291-4.84-1.014-10.423 2.043-11.239 3.054-.814 6.078 3.889 7.369 8.729.676 2.533.899 5.04.63 7.059-.309 2.318-1.259 3.803-2.674 4.181a2.706 2.706 0 0 1-.688.089zm-3.939-18.148a.714.714 0 0 0-.182.023c-1.131.302-1.938 3.876-.626 8.791.609 2.285 1.541 4.321 2.624 5.734.859 1.122 1.737 1.725 2.297 1.578.558-.148 1.021-1.111 1.207-2.512.235-1.764.029-3.994-.581-6.279-1.244-4.667-3.542-7.335-4.739-7.335z"/><ellipse cx="111.955" cy="90.595" rx="3.871" ry="9.333" transform="matrix(.5218 -.8531 .8531 .5218 -23.7471 138.8282)"/><path d="M117.407 97.479c-.438 0-.907-.039-1.406-.117-2.012-.316-4.352-1.244-6.588-2.611-2.236-1.368-4.127-3.028-5.325-4.675-1.375-1.892-1.712-3.622-.948-4.872s2.458-1.737 4.768-1.375c2.012.316 4.352 1.244 6.588 2.611 2.236 1.368 4.127 3.028 5.325 4.676 1.375 1.892 1.712 3.622.948 4.871-.599.98-1.77 1.492-3.362 1.492zM106.483 85.71c-.828 0-1.422.187-1.636.537-.301.493.028 1.509.859 2.652 1.047 1.439 2.734 2.912 4.751 4.146 2.017 1.234 4.096 2.065 5.854 2.341 1.396.219 2.451.05 2.751-.442.301-.493-.028-1.509-.859-2.652-1.046-1.439-2.734-2.912-4.751-4.146s-4.096-2.065-5.854-2.341a7.316 7.316 0 0 0-1.115-.095z"/></g></svg></g><g transform="translate(295.0 601.0) rotate(0.0 29.0 29.0) scale(1.172949360944831 1.1720012932428063)"><svg width="49.448" height="49.488" viewBox="0 0 49.448 49.488"><path d="M25.458 1.616c2.318 10.152 12.587 20.537 22.364 22.713a.422.422 0 0 1 0 .83c-9.777 2.176-20.046 12.561-22.364 22.713a.416.416 0 0 1-.818-.012c-2.05-9.942-12.693-20.48-23.023-22.707a.417.417 0 0 1 0-.818C11.947 22.107 22.59 11.57 24.64 1.628a.416.416 0 0 1 .818-.012z" fill="#fff"/><path d="M25.052 49.488h-.018a1.7 1.7 0 0 1-1.649-1.368c-1.95-9.457-12.249-19.6-22.038-21.714a1.7 1.7 0 0 1 0-3.324c9.789-2.111 20.088-12.257 22.038-21.713a1.7 1.7 0 0 1 3.322-.039c2.216 9.7 12.012 19.659 21.394 21.747a1.7 1.7 0 0 1 0 3.332C38.72 28.5 28.923 38.457 26.707 48.157a1.691 1.691 0 0 1-1.655 1.331zM4.846 24.744c8.816 3.114 17.187 11.367 20.228 19.937 3.148-8.6 11.281-16.854 19.648-19.937-8.367-3.083-16.5-11.335-19.648-19.937-3.041 8.569-11.411 16.822-20.228 19.937z" fill="#cbc8ff"/></svg></g><g transform="translate(1345.0 889.0) rotate(0.0 81.5 48.5) scale(0.9833553532538204 0.9866145896903861)"><svg width="165.759" height="98.316" viewBox="0 0 165.759 98.316"><g fill="#6ecfea"><path d="M8.772 87.416a2.5 2.5 0 0 1-1.046-4.771l149.471-68.789a2.5 2.5 0 0 1 2.09 4.542L9.816 87.186c-.338.156-.694.23-1.044.23z"/><path d="M13.789 98.316a2.5 2.5 0 0 1-2.272-1.456L.229 72.334a2.5 2.5 0 0 1 4.542-2.09l11.288 24.527a2.5 2.5 0 0 1-2.27 3.545zm149.472-68.788a2.5 2.5 0 0 1-2.272-1.455L149.7 3.545a2.5 2.5 0 0 1 4.542-2.09l11.288 24.527a2.5 2.5 0 0 1-2.269 3.546z"/><path d="M10.802 85.931a2.5 2.5 0 0 1-2.496-2.674c.714-10.249 3.58-20.204 8.52-29.588a2.501 2.501 0 0 1 4.425 2.329c-4.614 8.766-7.292 18.054-7.956 27.607a2.503 2.503 0 0 1-2.493 2.326zm26.644-52.09a2.5 2.5 0 0 1-1.684-4.348c7.412-6.756 15.954-12.508 25.389-17.096a2.5 2.5 0 0 1 2.186 4.497c-9.004 4.378-17.149 9.861-24.207 16.294a2.49 2.49 0 0 1-1.684.653zM156.27 17.882a2.48 2.48 0 0 1-1.242-.333 84.528 84.528 0 0 0-6.727-3.469 2.5 2.5 0 0 1 2.09-4.542 89.681 89.681 0 0 1 7.125 3.675 2.5 2.5 0 0 1-1.246 4.669zM90.649 7.778a2.5 2.5 0 0 1-.455-4.959C100.421.916 110.824.47 120.78 1.511a2.5 2.5 0 0 1 2.227 2.746 2.493 2.493 0 0 1-2.746 2.227c-9.48-.99-19.396-.564-29.152 1.251a2.485 2.485 0 0 1-.46.043z"/></g></svg></g><g transform="translate(540.0 365.0) rotate(0.0 34.0 34.0) scale(1.375182009383595 1.3740704817329454)"><svg width="49.448" height="49.488" viewBox="0 0 49.448 49.488"><g fill="#cbc8ff"><path d="M25.458 1.616c2.318 10.152 12.587 20.537 22.364 22.713a.422.422 0 0 1 0 .83c-9.777 2.176-20.046 12.561-22.364 22.713a.416.416 0 0 1-.818-.012c-2.05-9.942-12.693-20.48-23.023-22.707a.417.417 0 0 1 0-.818C11.947 22.107 22.59 11.57 24.64 1.628a.416.416 0 0 1 .818-.012z"/><path d="M25.052 49.488h-.019a1.7 1.7 0 0 1-1.648-1.369c-1.95-9.456-12.249-19.6-22.039-21.713a1.7 1.7 0 0 1 0-3.325c9.791-2.11 20.09-12.256 22.04-21.712a1.7 1.7 0 0 1 3.322-.039c2.215 9.7 12.012 19.66 21.393 21.748a1.7 1.7 0 0 1 0 3.332c-9.382 2.09-19.179 12.047-21.394 21.747a1.691 1.691 0 0 1-1.655 1.331zM4.846 24.744c8.816 3.114 17.187 11.367 20.228 19.937 3.148-8.6 11.281-16.854 19.648-19.937-8.367-3.083-16.5-11.335-19.648-19.938-3.041 8.57-11.412 16.823-20.228 19.938z"/></g></svg></g></svg>